# xmcd CD database file generated by OrangeCD 5.2
#
# Track frame offsets:
#	150
#	12715
#	23140
#	33924
#	44740
#	54251
#	63740
#	76343
#	85598
#	98100
#	111638
#	123299
#	133083
#	139423
#	150975
#	162712
#	177448
#	190079
#	206891
#	226889
#	236080
#	248280
#	273443
#	282568
#	298304
#
# Disc length: 4169 seconds
#
# Revision: 0
# Processed by: cddbd v1.5.1PL2 Copyright (c) Steve Scherf et al.
# Submitted via: OrangeCD 5.2
#
DISCID=75104719
DTITLE=Merle Haggard - Just Between The Two Of Us - The Fightin' Side Of Me
DYEAR=2003
DGENRE=Country
TTITLE0=Just Between The Two Of Us
TTITLE1=A House Without Love Is Not A Home
TTITLE2=Slowly But Surely
TTITLE3=Our Hearts Are Holding Hands
TTITLE4=I Wanta Live Again
TTITLE5=Forever And Ever
TTITLE6=That Makes Two Of Us
TTITLE7=I'll Take A Chance
TTITLE8=Stranger In My Arms
TTITLE9=Too Used To Being With You
TTITLE10=So Much For Me, So Much For You
TTITLE11=Wait A Little Longer, Please Jesus
TTITLE12=Opening Theme: Hammin' It Up
TTITLE13=I Take A Lot Of Pride In What I Am
TTITLE14=Corrine Corrina
TTITLE15=Every Fool Has A Rainbow
TTITLE16=T.B. Blues
TTITLE17=When Did Right Become Wrong
TTITLE18=Philadelphia Lawyer
TTITLE19=Stealin' Corn
TTITLE20=Harold's Super Service
TTITLE21=Medley: Devil Woman, I'm Movin' On, Folsom Prison Blues, Jackson, Oran
TTITLE21=ge Blossom Special, Love's Gonna Live Here
TTITLE22=Today I Started Loving You Again
TTITLE23=Okie From Muskogee
TTITLE24=The Fightin' Side Of Me
EXTD=
EXTT0=
EXTT1=
EXTT2=
EXTT3=
EXTT4=
EXTT5=
EXTT6=
EXTT7=
EXTT8=
EXTT9=
EXTT10=
EXTT11=
EXTT12=
EXTT13=
EXTT14=
EXTT15=
EXTT16=
EXTT17=
EXTT18=
EXTT19=
EXTT20=
EXTT21=
EXTT22=
EXTT23=
EXTT24=
PLAYORDER=
